# xmcd
#
# Track frame offsets: 
#        150
#        14136
#        28594
#        46556
#        65261
#        87574
#        103881
#        119969
#        137874
#        159969
#
# Disc length: 2368 seconds
#
# Revision: 0
# Processed by: cddbd v1.5.2PL0 Copyright (c) Steve Scherf et al.
# Submitted via: ExactAudioCopy v1.3
#
DISCID=8a093e0a
DTITLE=Magic Sam Blues Band - Black Magic
DYEAR=1994
DGENRE=Chicago Blues
TTITLE0=I Just Want A Little Bit
TTITLE1=Magic Sam - What Have I Done Wrong
TTITLE2=Magic Sam - Easy, Baby
TTITLE3=Magic Sam - You Belong To Me
TTITLE4=Magic Sam - It's All Your Fault
TTITLE5=Magic Sam - I Have The Same Old Blues
TTITLE6=Magic Sam - You Don't Love Me, Baby
TTITLE7=Magic Sam - San-Ho-Zay
TTITLE8=Magic Sam - Stop!  You're Hurting Me
TTITLE9=Magic Sam - Keep Loving Me Baby
EXTD=
EXTT0=
EXTT1=
EXTT2=
EXTT3=
EXTT4=
EXTT5=
EXTT6=
EXTT7=
EXTT8=
EXTT9=
PLAYORDER=
